<svg enable-background="new 0 0 64 64" height="64" width="64" xmlns="http://www.w3.org/2000/svg" style=""><rect id="backgroundrect" width="100%" height="100%" x="0" y="0" fill="none" stroke="none"/><g class="currentLayer" style=""><title>Layer 1</title><g id="svg_1" class="selected" fill="#ffffff" fill-opacity="1"><path d="m62.929 38.372-1.858-.744-3.748 9.372h2.154z" id="svg_2" fill="#ffffff" fill-opacity="1"/><path d="m45 13h2v6h-2z" id="svg_3" fill="#ffffff" fill-opacity="1"/><path d="m49 15h2v4h-2z" id="svg_4" fill="#ffffff" fill-opacity="1"/><path d="m41 15h2v4h-2z" id="svg_5" fill="#ffffff" fill-opacity="1"/><path d="m27 24c1.103 0 2-.897 2-2s-.897-2-2-2z" id="svg_6" fill="#ffffff" fill-opacity="1"/><path d="m22 34.303-1.762 2.643 1.762 2.203z" id="svg_7" fill="#ffffff" fill-opacity="1"/><path d="m29 17h-2v1c.732 0 1.409.212 2 .556z" id="svg_8" fill="#ffffff" fill-opacity="1"/><path d="m31 15v-2h-24-.001l.001 2z" id="svg_9" fill="#ffffff" fill-opacity="1"/><path d="m16.721 29-.618 1.852 2.897 4.345 2.897-4.345-.618-1.852z" id="svg_10" fill="#ffffff" fill-opacity="1"/><path d="m45 33h-10v14h10zm-6 12h-2v-10h2zm4 0h-2v-10h2z" id="svg_11" fill="#ffffff" fill-opacity="1"/><path d="m47 47h8v-10h-8zm2-8h4v2h-4zm0 4h4v2h-4z" id="svg_12" fill="#ffffff" fill-opacity="1"/><path d="m47 35h6v-14h-14v10h8zm2-12h2v2h-2zm0 4h2v2h-2zm0 4h2v2h-2zm-4-8h2v2h-2zm-2 6h-2v-2h2zm0-4h-2v-2h2zm2 4v-2h2v2z" id="svg_13" fill="#ffffff" fill-opacity="1"/><path d="m16 39.149 1.762-2.203-1.762-2.643z" id="svg_14" fill="#ffffff" fill-opacity="1"/><path d="m22 3.458v7.542h6.796c-.726-3.628-3.361-6.477-6.796-7.542z" id="svg_15" fill="#ffffff" fill-opacity="1"/><path d="m20 3.05c-.329-.032-.662-.05-1-.05s-.671.018-1 .05v7.95h2z" id="svg_16" fill="#ffffff" fill-opacity="1"/><path d="m16 3.458c-3.435 1.065-6.07 3.914-6.796 7.542h6.796z" id="svg_17" fill="#ffffff" fill-opacity="1"/><path d="m25 56c0-.551-.449-1-1-1h-2v-1c0-.551-.449-1-1-1h-1.171c-.267 0-.519.104-.708.293l-1.121 1.121v2.586h6c.551 0 1-.449 1-1z" id="svg_18" fill="#ffffff" fill-opacity="1"/><path d="m26.819 47h3.703l-3.451-8.628 1.857-.743 3.749 9.371h.323v-7.324c-1.962-3.52-5.187-6.136-9-7.348v20.672c1.654 0 3 1.346 3 3s-1.346 3-3 3v2h5v-8.71c-1.01-1.124-1.721-2.535-1.986-4.125z" id="svg_19" fill="#ffffff" fill-opacity="1"/><path d="m31 61h4v-6.004c-1.45-.014-2.817-.403-4-1.083z" id="svg_20" fill="#ffffff" fill-opacity="1"/><path d="m35.083 53h5.102c.414-1.161 1.514-2 2.816-2h4c1.302 0 2.402.839 2.816 2h5.102c2.624 0 4.896-1.625 5.785-4h-31.406c.889 2.375 3.16 4 5.785 4z" id="svg_21" fill="#ffffff" fill-opacity="1"/><path d="m16 59h6v2h-6z" id="svg_22" fill="#ffffff" fill-opacity="1"/><path d="m47 53h-4c-.551 0-1 .449-1 1 0 1.654 1.346 3 3 3s3-1.346 3-3c0-.551-.449-1-1-1z" id="svg_23" fill="#ffffff" fill-opacity="1"/><path d="m25 24v-7h-12v7c0 1.654 1.346 3 3 3h6c1.654 0 3-1.346 3-3z" id="svg_24" fill="#ffffff" fill-opacity="1"/><path d="m11 17h-2v1.556c.591-.344 1.268-.556 2-.556z" id="svg_25" fill="#ffffff" fill-opacity="1"/><path d="m16 52.753.681.151 1.026-1.026c.566-.566 1.32-.878 2.122-.878h1.171c.351 0 .686.065 1 .176v-8.826l-3-3.75-3 3.75z" id="svg_26" fill="#ffffff" fill-opacity="1"/><path d="m9 58.574v2.426h5v-2h-2c-1.041 0-2.045-.155-3-.426z" id="svg_27" fill="#ffffff" fill-opacity="1"/><path d="m11 24v-4c-1.103 0-2 .897-2 2s.897 2 2 2z" id="svg_28" fill="#ffffff" fill-opacity="1"/><path d="m16 57v-2.198l-3.519-.782c-3.227-.717-5.481-3.527-5.481-6.833v-4.187h2v4.187c0 2.362 1.61 4.369 3.915 4.881l1.085.241v-19.997c-6.536 2.061-11 8.07-11 15.03v.658c0 4.962 4.038 9 9 9z" id="svg_29" fill="#ffffff" fill-opacity="1"/></g></g></svg>