<svg xmlns="http://www.w3.org/2000/svg" width="512" height="512"><rect id="backgroundrect" width="100%" height="100%" x="0" y="0" fill="none" stroke="none"/><g class="currentLayer" style=""><title>Layer 1</title><g id="solid" class="selected" fill="#ffffff" fill-opacity="1"><path d="M125.333,240,112,152H32L18.667,240H32v31.726a8.183,8.183,0,0,0,7.468,8.257A8,8,0,0,0,48,272V240H64v64H44a4,4,0,0,0-4,4v16a4,4,0,0,0,4,4H55.68L24.308,437.8a8,8,0,1,0,15.384,4.4L64,357.122v82.6a8.183,8.183,0,0,0,7.468,8.257A8,8,0,0,0,80,440V357.122L104.308,442.2a8,8,0,1,0,15.384-4.4L88.32,328H100a4,4,0,0,0,4-4V308a4,4,0,0,0-4-4H80V240Z" id="svg_1" fill="#ffffff" fill-opacity="1"/><path d="M278.074,146.794l25.28,29.493,44.058-30.841a8,8,0,0,1,10.662,1.348L376,167.707V104H216v77.435l51.412-35.989A8,8,0,0,1,278.074,146.794ZM312,123.543A12.457,12.457,0,1,1,299.543,136,12.471,12.471,0,0,1,312,123.543Z" id="svg_2" fill="#ffffff" fill-opacity="1"/><path d="M306.572,193.565l-.026.018L297.379,200H376v-7.708l-25.354-29.579Z" id="svg_3" fill="#ffffff" fill-opacity="1"/><polygon points="217.379 200 269.478 200 290.183 185.506 270.646 162.713 217.379 200" id="svg_4" fill="#ffffff" fill-opacity="1"/><path d="M471.726,320H424V286a14,14,0,0,0-14-14H312v88H296V272H198a14,14,0,0,0-14,14v34H136.274a8.182,8.182,0,0,0-8.257,7.467A8,8,0,0,0,136,336V439.726a8.183,8.183,0,0,0,7.468,8.257A8,8,0,0,0,152,440v-8H456v7.726a8.183,8.183,0,0,0,7.468,8.257A8,8,0,0,0,472,440V336a8,8,0,0,0,7.983-8.533A8.182,8.182,0,0,0,471.726,320ZM360,304h8a8,8,0,0,1,0,16h-8a8,8,0,0,1,0-16Zm-120,0h8a8,8,0,0,1,0,16h-8a8,8,0,0,1,0-16Zm-88,32h32v24H158a6.006,6.006,0,0,0-6,6Zm304,72H152V392H456Zm0-42c0-3.309-4.691-6-8-6H424V336h32Z" id="svg_5" fill="#ffffff" fill-opacity="1"/></g></g></svg>