<svg version="1.1" xmlns="http://www.w3.org/2000/svg" xmlns:xlink="http://www.w3.org/1999/xlink" width="612.004" height="612.004" style="enable-background:new 0 0 612.004 612.004;" xml:space="preserve"><rect id="backgroundrect" width="100%" height="100%" x="0" y="0" fill="none" stroke="none"/>
















<g class="currentLayer" style=""><title>Layer 1</title><g id="svg_1" class="selected" fill="#ffffff" fill-opacity="1">
	<path d="M611.308,298.217c-2.844-10.286-13.484-16.326-23.782-13.509l-61.653,16.983c9.355-2.948,14.886-12.711,12.226-22.236   l-23.05-83.444l11.897-3.262c0.039-0.027,0.092-0.027,0.092-0.027c9.775-2.699,15.515-12.776,12.842-22.552   c-1.795-6.355-6.695-11.008-12.605-12.75l-147.82-57.84c-7.587-2.974-16.169-0.589-21.175,5.845l-39.338,50.737l-2.215-8.164   c-2.687-9.737-12.804-15.488-22.577-12.789l-16.341,4.509c-9.749,2.699-15.475,12.803-12.735,22.552l12.88,46.845l-17.821,23.009   c-4.849,6.238-5.149,14.898-0.747,21.451c4.375,6.552,12.513,9.553,20.114,7.456l11.858-3.276l23.089,83.391   c2.581,9.383,12.043,14.832,21.425,12.869l-222.802,61.375c4.574-4.18,6.828-10.6,5.072-16.982l-3.368-12.227   c29.588-12.238,45.129-36.402,36.755-66.828l-0.117-0.498c-8.307-30.047-31.526-37.187-69.029-36.689   c-31.934,0.577-40.321-1.087-43.464-12.409l-0.145-0.512c-2.281-8.374,3.511-17.14,18.056-21.136   c11.847-3.276,24.845-2.32,39.48,1.611c3.407,0.904,6.618,1.087,10.326,0.065c9.854-2.699,15.686-12.554,12.973-22.393   c-2.057-7.403-7.705-11.453-12.579-12.724c-12.75-3.931-26.3-5.11-40.478-3.617l-3.578-12.946   c-2.515-9.107-11.846-14.427-20.965-11.912c-9.042,2.489-14.362,11.846-11.846,20.953l3.537,12.854   C7.873,232.513-5.324,256.413,2.014,283.106l0.145,0.498c9.447,34.278,34.527,37.712,71.729,36.991   c30.872-0.523,38.158,2.752,40.818,12.371l0.145,0.484c2.778,10.104-4.888,18.844-20.429,23.143   c-16.759,4.625-32.681,2.633-48.444-3.354c-2.909-1.076-6.813-1.809-11.781-0.473c-9.841,2.727-15.645,12.514-12.919,22.395   c1.624,5.91,6.079,10.533,11.112,12.303c15.985,5.883,32.812,7.77,49.19,6.42l3.735,13.562c1.756,6.395,6.971,10.744,13.052,11.988   L23.1,440.178c-10.286,2.844-16.326,13.484-13.497,23.783c2.844,10.299,13.47,16.34,23.771,13.508l212.305-58.48l-67.379,67.381   c-4.573,4.586-5.948,11.465-3.472,17.455c2.464,5.963,8.321,9.867,14.78,9.867l184.826-0.012c6.461,0,12.317-3.904,14.78-9.867   c2.477-5.988,1.102-12.869-3.473-17.455l-83.077-83.076L597.782,322C608.084,319.182,614.137,308.529,611.308,298.217z    M362.274,261.697l29.981-8.256c6.553-1.808,13.353,2.07,15.162,8.623l8.268,29.982c1.795,6.577-2.044,13.352-8.623,15.161   l-29.994,8.256c-6.564,1.822-13.352-2.031-15.188-8.623l-8.229-29.967C351.817,270.318,355.695,263.504,362.274,261.697z    M471.519,244.414l8.229,29.967c1.821,6.577-2.057,13.378-8.623,15.174l-29.982,8.256c-6.564,1.807-13.366-2.044-15.173-8.623   l-8.256-29.982c-1.796-6.553,2.044-13.366,8.623-15.174l29.994-8.256C462.883,233.996,469.685,237.847,471.519,244.414z    M408.947,180.966l29.994-8.256c6.565-1.808,13.353,2.044,15.174,8.609l8.241,29.982c1.808,6.552-2.056,13.366-8.623,15.173   l-29.968,8.256c-6.564,1.808-13.365-2.044-15.161-8.623l-8.268-29.994C398.544,189.562,402.383,182.761,408.947,180.966z    M344.886,198.604l29.981-8.256c6.564-1.807,13.366,2.044,15.174,8.609l8.256,29.982c1.808,6.579-2.044,13.366-8.597,15.188   l-29.994,8.241c-6.579,1.808-13.378-2.044-15.188-8.608l-8.256-29.994C334.44,207.212,338.307,200.423,344.886,198.604z" id="svg_2" fill="#ffffff" fill-opacity="1"/>
</g><g id="svg_3" class="selected" fill="#ffffff" fill-opacity="1">
</g><g id="svg_4" class="selected" fill="#ffffff" fill-opacity="1">
</g><g id="svg_5" class="selected" fill="#ffffff" fill-opacity="1">
</g><g id="svg_6" class="selected" fill="#ffffff" fill-opacity="1">
</g><g id="svg_7" class="selected" fill="#ffffff" fill-opacity="1">
</g><g id="svg_8" class="selected" fill="#ffffff" fill-opacity="1">
</g><g id="svg_9" class="selected" fill="#ffffff" fill-opacity="1">
</g><g id="svg_10" class="selected" fill="#ffffff" fill-opacity="1">
</g><g id="svg_11" class="selected" fill="#ffffff" fill-opacity="1">
</g><g id="svg_12" class="selected" fill="#ffffff" fill-opacity="1">
</g><g id="svg_13" class="selected" fill="#ffffff" fill-opacity="1">
</g><g id="svg_14" class="selected" fill="#ffffff" fill-opacity="1">
</g><g id="svg_15" class="selected" fill="#ffffff" fill-opacity="1">
</g><g id="svg_16" class="selected" fill="#ffffff" fill-opacity="1">
</g><g id="svg_17" class="selected" fill="#ffffff" fill-opacity="1">
</g></g></svg>