<?xml version="1.0" encoding="utf-8"?>
<!-- Generator: Adobe Illustrator 19.0.0, SVG Export Plug-In . SVG Version: 6.00 Build 0)  -->
<svg version="1.1" id="Layer_1" xmlns="http://www.w3.org/2000/svg" xmlns:xlink="http://www.w3.org/1999/xlink" x="0px" y="0px"
	 viewBox="0 0 400 400" style="enable-background:new 0 0 400 400;" xml:space="preserve">
<style type="text/css">
	.st0{fill:none;}
	.st1{fill:#00A79D;}
	.st2{fill:#FFFFFF;}
</style>
<g id="XMLID_43_">
	<line id="XMLID_2_" class="st0" x1="286.4" y1="0" x2="286.4" y2="53.2"/>
	<path id="XMLID_18_" class="st1" d="M229,92.3v133.1H389V92.3H229z M360.6,165.8V207h-95.8v-41.1h-16.2c27-21.8,25.7-23,25.7-23
		l0-21.8h9.4v14.5l29.7-31.4l64.8,61.7H360.6z"/>
	<rect id="XMLID_3_" x="229" y="239" class="st1" width="61.1" height="117"/>
	<rect id="XMLID_11_" x="296" y="137.2" class="st1" width="15.6" height="15.6"/>
	<rect id="XMLID_10_" x="313" y="137.2" class="st1" width="15.6" height="15.6"/>
	<rect id="XMLID_9_" x="296" y="154.2" class="st1" width="15.6" height="15.6"/>
	<rect id="XMLID_7_" x="313" y="154.2" class="st1" width="15.6" height="15.6"/>
	<rect id="XMLID_22_" x="176.2" y="80.3" class="st1" width="7.2" height="52.4"/>
	<rect id="XMLID_28_" x="6" y="4.4" class="st1" width="177.4" height="43.9"/>
	<polygon id="XMLID_29_" class="st1" points="215.5,4.4 215.5,305.5 176.2,305.5 176.2,80.3 190.6,80.3 190.6,48.2 156.6,48.2 
		156.6,4.4 	"/>
	<rect id="XMLID_5_" x="212.2" y="4.4" class="st1" width="111.3" height="64.2"/>
	<rect id="XMLID_1_" x="125.8" y="83.8" class="st1" width="33.4" height="33.4"/>
	<rect id="XMLID_4_" x="78" y="83.8" class="st1" width="33.4" height="33.4"/>
	<rect id="XMLID_6_" x="30.5" y="83.8" class="st1" width="33.4" height="33.4"/>
	<rect id="XMLID_13_" x="125.6" y="132" class="st1" width="33.4" height="33.4"/>
	<rect id="XMLID_12_" x="77.8" y="132" class="st1" width="33.4" height="33.4"/>
	<rect id="XMLID_8_" x="30.4" y="132" class="st1" width="33.4" height="33.4"/>
	<rect id="XMLID_19_" x="125.6" y="179.4" class="st1" width="33.4" height="33.4"/>
	<rect id="XMLID_15_" x="77.8" y="179.4" class="st1" width="33.4" height="33.4"/>
	<rect id="XMLID_14_" x="30.4" y="179.4" class="st1" width="33.4" height="33.4"/>
	<path id="XMLID_42_" class="st2" d="M309.5,143.5c-0.3,0.9-0.8,1.6-1.5,2.3c-1.3,1.1-2.1,2.7-2.1,4.5c0,3.4,2.8,6.1,6.3,6
		c3.1-0.1,5.6-2.7,5.7-5.8c0-1.9-0.8-3.6-2.1-4.7c-0.7-0.6-1.3-1.4-1.5-2.2L309.5,143.5L309.5,143.5z"/>
	<path id="XMLID_41_" class="st2" d="M312.4,143.4l-0.4,0l1.7,6.4c0,0-0.1,0-0.1,0c-0.2,0-0.4,0.1-0.6,0.3c-0.1,0.1-0.2,0.1-0.3,0.1
		s-0.2,0-0.3-0.1c-0.3-0.3-0.8-0.3-1.1,0c-0.1,0.1-0.2,0.1-0.3,0.1c-0.1,0-0.2,0-0.3-0.1c-0.2-0.2-0.3-0.3-0.6-0.3c0,0-0.1,0-0.1,0
		l1.7-6.4l-0.4,0l-1.8,6.7c0,0.1,0,0.2,0.1,0.2c0.1,0,0.2,0,0.2,0c0.1-0.1,0.2-0.1,0.3-0.1c0.1,0,0.2,0,0.3,0.1
		c0.2,0.2,0.3,0.3,0.6,0.3c0.2,0,0.4-0.1,0.6-0.3c0.2-0.2,0.4-0.2,0.6,0c0.1,0.2,0.3,0.3,0.6,0.3l0,0c0.2,0,0.4-0.1,0.6-0.3
		c0.1-0.1,0.2-0.1,0.3-0.1c0.1,0,0.2,0,0.3,0.1c0,0,0.1,0.1,0.2,0c0.1,0,0.1-0.1,0.1-0.2L312.4,143.4z"/>
	<g id="XMLID_38_">
		<path id="XMLID_40_" class="st2" d="M313.2,139.6c-0.2-0.5-0.7-0.9-1.3-0.9c-0.6,0-1.1,0.4-1.3,0.9L313.2,139.6z"/>
		<path id="XMLID_39_" class="st2" d="M310.2,139.5l3.2,0c0.4,0,0.8,0.3,0.8,0.8l0,3.3l-4.7,0l0-3.3
			C309.5,139.9,309.8,139.5,310.2,139.5z"/>
	</g>
	<g id="XMLID_35_">
		<path id="XMLID_37_" class="st2" d="M309.5,141.9l4.7,0c0.3,0,0.5,0.2,0.5,0.5l0,0c0,0.3-0.2,0.5-0.5,0.5l-4.7,0
			c-0.3,0-0.5-0.2-0.5-0.5l0,0C309,142.2,309.2,141.9,309.5,141.9z"/>
		<path id="XMLID_36_" class="st2" d="M309.5,140.4l4.7,0c0.3,0,0.5,0.2,0.5,0.5l0,0c0,0.3-0.2,0.5-0.5,0.5l-4.7,0
			c-0.3,0-0.5-0.2-0.5-0.5l0,0C309,140.6,309.2,140.4,309.5,140.4z"/>
	</g>
	<g id="XMLID_20_">
		<path id="XMLID_33_" class="st2" d="M311.9,159.4c0.2,0,0.4-0.2,0.4-0.4l0-1.5c0-0.2-0.2-0.4-0.4-0.4c-0.3,0-0.4,0.2-0.4,0.4
			l0,1.5C311.4,159.2,311.6,159.4,311.9,159.4z"/>
		<path id="XMLID_31_" class="st2" d="M317.6,156.8c0.2,0.2,0.4,0.2,0.6,0s0.2-0.4,0-0.6l-1-1c-0.2-0.2-0.4-0.2-0.6,0
			s-0.2,0.4,0,0.6L317.6,156.8z"/>
		<path id="XMLID_27_" class="st2" d="M319,150.8l1.5,0c0.2,0,0.4-0.2,0.4-0.4l0,0c0-0.2-0.2-0.4-0.4-0.4l-1.5,0
			c-0.2,0-0.4,0.2-0.4,0.4l0,0C318.5,150.6,318.8,150.8,319,150.8z"/>
		<path id="XMLID_26_" class="st2" d="M317.2,145.6l1-1c0.2-0.2,0.2-0.4,0-0.6c-0.2-0.2-0.4-0.2-0.6,0l-1,1c-0.2,0.2-0.2,0.4,0,0.6
			C316.8,145.8,317,145.8,317.2,145.6z"/>
		<path id="XMLID_25_" class="st2" d="M306.5,145.6c0.2,0.2,0.4,0.2,0.6,0c0.2-0.2,0.2-0.4,0-0.6l-1-1c-0.2-0.2-0.4-0.2-0.6,0
			c-0.2,0.2-0.2,0.4,0,0.6L306.5,145.6z"/>
		<path id="XMLID_24_" class="st2" d="M303.2,150.8l1.5,0c0.2,0,0.4-0.2,0.4-0.4l0,0c0-0.2-0.2-0.4-0.4-0.4l-1.5,0
			c-0.2,0-0.4,0.2-0.4,0.4l0,0C302.8,150.6,303,150.8,303.2,150.8z"/>
		<path id="XMLID_23_" class="st2" d="M306.1,156.8l1-1c0.2-0.2,0.2-0.4,0-0.6c-0.2-0.2-0.4-0.2-0.6,0l-1,1c-0.2,0.2-0.2,0.4,0,0.6
			C305.6,156.9,305.9,156.9,306.1,156.8z"/>
	</g>
	<rect id="XMLID_16_" x="229" y="225.4" class="st1" width="159.9" height="18.1"/>
	<rect id="XMLID_17_" x="229" y="80.3" class="st1" width="159.9" height="18.1"/>
	<rect id="XMLID_21_" x="389" y="80.3" class="st1" width="9.2" height="163.2"/>
</g>
<rect id="XMLID_44_" x="232" y="207" class="st1" width="164.5" height="32.1"/>
</svg>
