<svg height="512" width="512" xmlns="http://www.w3.org/2000/svg"><rect id="backgroundrect" width="100%" height="100%" x="0" y="0" fill="none" stroke="none"/><g class="currentLayer" style=""><title>Layer 1</title><path d="m217.52441 199.99463a14.54625 14.54625 0 0 0 -6.47216 1.52783l-12.94434 6.47217h-34.79785l-30.74512-30.74512a59.31359 59.31359 0 0 0 -11.15619-8.76355 23.9077 23.9077 0 0 0 6.58783-16.49133v-11.05579l2.7334-1.36657a23.8698 23.8698 0 0 0 13.2666-21.46631v-14.11133a7.99977 7.99977 0 0 0 -8-8h-39.93458a30.28947 30.28947 0 0 0 -27.0918 43.83545l2.38917 4.77832-7.29462 21.88428a58.96006 58.96006 0 0 0 -32.06818 52.41357v61.08838a7.99868 7.99868 0 0 0 .23877 1.94043l15.37256 61.49023-31.03905 77.59815a7.99982 7.99982 0 0 0 2.62793 9.37109l32 24a7.99948 7.99948 0 0 0 4.7998 1.6001h16a8.00008 8.00008 0 0 0 7.76123-9.94043l-7.332-29.32764 20.66119-46.48779 10.90954 54.54834v23.20752a7.99977 7.99977 0 0 0 8 8h56a7.99977 7.99977 0 0 0 8-8v-8a7.99877 7.99877 0 0 0 -2.34326-5.65674l-21.98047-21.981-7.0708-70.70947a39.78455 39.78455 0 0 0 -4.686-15.17383l-42.89453-78.64009 9.70508-19.41016 23.50733 18.80615a40.14421 40.14421 0 0 0 24.98779 8.76514h79.11816a13.65669 13.65669 0 0 0 9.65674-23.31348l-12-12v-6.21435a14.48856 14.48856 0 0 0 -14.47217-14.47217zm-135.019-78.229a14.2723 14.2723 0 0 1 13.55664-9.771h31.93457v6.11137a7.9577 7.9577 0 0 1 -4.42236 7.15576l-7.15527 3.57764a9.89969 9.89969 0 0 1 -13.26709-4.42237 8 8 0 0 0 -12.812-2.0791l-7.97863 7.97864a14.17875 14.17875 0 0 1 .1441-8.55095zm4.4834 26.5503 8.42383-8.42383a26.11948 26.11948 0 0 0 16.584 6.00439v6.09815a8.00917 8.00917 0 0 1 -8 8h-13.08844a59.11 59.11 0 0 0 -7.9981.55749zm-28.32572 291.6787-24.96192-18.72119 1.67505-4.1875 22.02338 5.50586 4.35089 17.40283zm.75293-33.39148-18.04248-4.51062 22.05078-55.12671a8.00207 8.00207 0 0 0 .33349-4.91162l-10.98132-43.925 5.451 3.63452 28.67047 43.005zm97.26709 33.39148h-36.68653v-9.75363l21.54627-5.3866zm-30.813-105.85889a23.86453 23.86453 0 0 1 2.811 9.104l6.667 66.67065-17.15228 4.28809-14.35455-71.77271a7.99964 7.99964 0 0 0 -1.18848-2.86865l-32-48a7.99882 7.99882 0 0 0 -2.21875-2.21875l-9.75049-6.501a23.95038 23.95038 0 0 1 -10.687-19.96875v-6.874h35.251zm-23.58984-125.95508a7.99994 7.99994 0 0 0 -5.439 4.23633l-13.78878 27.57764h-35.05591v-21.08838a42.91185 42.91185 0 0 1 73.25488-30.34325l12.18232 12.18231-13.38465 17.84625-11.055-8.844a8.00657 8.00657 0 0 0 -6.71386-1.5669zm52.94141 31.814a24.08622 24.08622 0 0 1 -14.99268-5.25928l-7.68011-6.1441 12.31323-16.4176 9.47772 9.47772a7.99877 7.99877 0 0 0 5.65674 2.34326h40a7.99583 7.99583 0 0 0 3.57764-.84473l12.42236-6.21142v7.05615a7.99881 7.99881 0 0 0 2.34326 5.65674l10.34327 10.34326z" id="svg_1" class="" fill="#ffffff" fill-opacity="1"/><path d="m455.99658 55.99463h-8a7.99977 7.99977 0 0 0 -8 8v16h-224v-16a7.99977 7.99977 0 0 0 -8-8h-16a40.04521 40.04521 0 0 0 -40 40v88h16v-88a24.02687 24.02687 0 0 1 24-24h8v112h16v-88h224v200a7.99977 7.99977 0 0 0 8 8h8a24 24 0 0 1 0 48h-264a24 24 0 1 1 0-48h8a7.99977 7.99977 0 0 0 8-8v-24h-16v16a39.79085 39.79085 0 0 0 -24 8.02185v-24.02185h-16v56a40.04521 40.04521 0 0 0 40 40h264a40.04521 40.04521 0 0 0 40-40v-232a40.04521 40.04521 0 0 0 -40-40zm24 240.019a39.7957 39.7957 0 0 0 -24-8.019v-216a24.02687 24.02687 0 0 1 24 24z" id="svg_2" class="" fill="#ffffff" fill-opacity="1"/><path d="m231.99658 119.99463v48h16v-16h16a7.99977 7.99977 0 0 0 8-8v-16h16v-16h-48a7.99977 7.99977 0 0 0 -8 8zm24 8v8h-8v-8z" id="svg_3" class="" fill="#ffffff" fill-opacity="1"/><path d="m303.997 111.995h16v16h-16z" id="svg_4" class="" fill="#ffffff" fill-opacity="1"/><path d="m231.997 183.995h16v16h-16z" id="svg_5" class="" fill="#ffffff" fill-opacity="1"/><path d="m423.99658 119.99463a7.99977 7.99977 0 0 0 -8-8h-48v16h16v16a7.99977 7.99977 0 0 0 8 8h16v16h16zm-24 16v-8h8v8z" id="svg_6" class="" fill="#ffffff" fill-opacity="1"/><path d="m335.997 111.995h16v16h-16z" id="svg_7" class="" fill="#ffffff" fill-opacity="1"/><path d="m407.997 183.995h16v16h-16z" id="svg_8" class="" fill="#ffffff" fill-opacity="1"/><path d="m231.99658 279.99463v48a7.99977 7.99977 0 0 0 8 8h48v-16h-16v-16a7.99977 7.99977 0 0 0 -8-8h-16v-16zm24 32v8h-8v-8z" id="svg_9" class="" fill="#ffffff" fill-opacity="1"/><path d="m303.997 319.995h16v16h-16z" id="svg_10" class="" fill="#ffffff" fill-opacity="1"/><path d="m407.99658 295.99463h-16a7.99977 7.99977 0 0 0 -8 8v16h-16v16h48a7.99977 7.99977 0 0 0 8-8v-48h-16zm-8 24v-8h8v8z" id="svg_11" class="" fill="#ffffff" fill-opacity="1"/><path d="m335.997 319.995h16v16h-16z" id="svg_12" class="" fill="#ffffff" fill-opacity="1"/><path d="m407.997 247.995h16v16h-16z" id="svg_13" class="" fill="#ffffff" fill-opacity="1"/><path d="m271.99658 199.99463v72a7.99977 7.99977 0 0 0 8 8h96a7.99977 7.99977 0 0 0 8-8v-72a8.00149 8.00149 0 0 0 -2.87842-6.146l-48-40a8.00185 8.00185 0 0 0 -10.24316 0l-48 40a8.00149 8.00149 0 0 0 -2.87842 6.146zm64 64h-16v-24h16zm16 0v-32a7.99977 7.99977 0 0 0 -8-8h-32a7.99977 7.99977 0 0 0 -8 8v32h-16v-56h80v56zm-24-93.58643 25.90357 21.58643h-51.80715z" id="svg_14" class="" fill="#ffffff" fill-opacity="1"/></g></svg>